# xmcd
#
# Track frame offsets:
#	150
#	18287
#	42121
#	61484
#	81754
#	94411
#	113516
#	130648
#	152157
#	171143
#	190893
#
# Disc length: 2837 seconds
#
# Revision: 0
# Processed by: cddbd v1.4PL0 Copyright (c) Steve Scherf et al.
# Submitted via: audiograbber 1.80.04
#
DISCID=830b130b
DTITLE=Al Lee - Ain't Playing The Game
DYEAR=2001
DGENRE=
TTITLE0=Rainy Changes (Blues)
TTITLE1=The Sacred Game
TTITLE2=Come Away
TTITLE3=Cartoon Of Life
TTITLE4=Good Journey
TTITLE5=Gypsy Caravan
TTITLE6=Didn't Quite Have The Time
TTITLE7=Faces
TTITLE8=What Would You Say
TTITLE9=Lazin
TTITLE10=Rainy Changes
EXTD=
EXTT0=
EXTT1=
EXTT2=
EXTT3=
EXTT4=
EXTT5=
EXTT6=
EXTT7=
EXTT8=
EXTT9=
EXTT10=
PLAYORDER=
